# xmcd
#
# Track frame offsets:
#	150
#	19542
#	35410
#	51640
#	73577
#	93942
#	114632
#	127905
#	152805
#	173897
#	195922
#	213465
#
# Disc length: 3119 seconds
#
# Revision: 0
# Processed by: cddbd v1.4PL0 Copyright (c) Steve Scherf et al.
# Submitted via: dBpowerAMP V4.0
#
DISCID=9f0c2d0c
DTITLE=Acuff's Rose - Never Coming Down
DYEAR=1900
DGENRE=Country
TTITLE0=Cold Country Blues
TTITLE1=It's Not The Girl But The Country
TTITLE2=From A Silver Phial
TTITLE3=Hold The Tide Back
TTITLE4=Bitter Angel
TTITLE5=Railroad Man
TTITLE6=Firebird
TTITLE7=One Ship Without A Star
TTITLE8=Sanctify Me
TTITLE9=Diamond Valley
TTITLE10=To Sleep And Not To Dream
TTITLE11=One Ship Without A Star(2)
EXTD=
EXTT0=
EXTT1=
EXTT2=
EXTT3=
EXTT4=
EXTT5=
EXTT6=
EXTT7=
EXTT8=
EXTT9=
EXTT10=
EXTT11=
PLAYORDER=
